<?xml version="1.0" encoding="utf-8"?>
<!-- Generator: Adobe Illustrator 27.4.0, SVG Export Plug-In . SVG Version: 6.00 Build 0)  -->
<svg version="1.1" xmlns="http://www.w3.org/2000/svg" xmlns:xlink="http://www.w3.org/1999/xlink" x="0px" y="0px"
	 viewBox="0 0 889.6 434" style="enable-background:new 0 0 889.6 434;" xml:space="preserve">
<style type="text/css">
	.st0{fill:#ED1C24;}
	.st1{display:none;}
	.st2{display:inline;fill:none;stroke:#ED1C24;stroke-miterlimit:10;}
</style>
<g id="Layer_1">
	<path class="st0" d="M310.2,167.8c-12.9,0.7-18.9,5.7-20,14.1c-1.2,7.4-2.1,16.2-2.1,33.2v26c0,25.3-3.8,45.3-17.2,59.7
		c-11,11.5-27.2,17.4-44.2,17.4c-15.8,0-30.8-3.3-42.2-12.2c-13.4-10.7-19.8-28.4-19.8-56.3v-56.3c0-22.4-2.4-23.9-20-25.5v-8.4
		h71.8v8.4c-17.4,1.7-19.8,3.1-19.8,25.5v52c0,35.8,12.9,56.6,38.7,56.6c28.4,0,40.8-21.5,40.8-61.3v-25.5c0-16.9-1.2-26-2.4-33.2
		c-1.4-8.4-6.9-13.1-23.2-14.1v-8.4h59.7V167.8z"/>
	<path class="st0" d="M479.2,168c-15.5,1.7-19.8,4.5-29.4,27.2c-7.9,18.6-29.6,72.8-48.2,122h-11.9c-16.2-43.7-38.7-101.2-48.5-126
		c-7.4-18.4-11.2-21.7-26-23.2v-8.6h71.1v8.6c-17.4,2.6-17.4,5.3-13.8,15.5c6.9,19.1,25.8,67.5,34.4,90h0.7
		c13.1-34.8,23.4-62.5,29.8-83.3c5.5-16.5,5.5-19.8-14.1-22.2v-8.6h55.9V168z"/>
	<path class="st0" d="M617.7,275c-1.7,10.7-6.4,32.5-8.4,39.6H487.6v-8.4c20.3-1.7,22.7-3.1,22.7-23.4v-91.7
		c0-20.8-2.4-22-19.3-23.4v-8.4h112.4c0.2,4.3,1.4,21,2.4,35.8l-8.8,1.2c-2.1-8.4-5.3-16.2-9.5-20.5c-4.1-4.3-10.5-6-23.9-6H552
		c-8.8,0-9.8,0.5-9.8,8.4v50.6h16c20,0,23.4-1.2,26.5-17.9h8.6v48h-8.6c-3.1-17.2-6.2-18.1-26.5-18.1h-16v41.5
		c0,11.5,1,17.2,5.7,19.6c4.3,1.9,12.4,2.4,21.5,2.4c12.4,0,20.8-1.7,26.3-7.6c4.8-5.3,9.1-12.9,13.4-23.4L617.7,275z"/>
	<path class="st0" d="M792.9,167.6c-12.9,0.7-17.9,4.1-19.1,14.8c-0.7,7.4-2.1,18.6-2.1,39.9V317h-11.5l-99.3-118.9h-0.7v53.5
		c0,21,1.2,31.7,1.9,38.9c1.2,10.5,5.3,15,22.9,15.8v8.4h-58.5v-8.4c13.4-1,18.9-4.8,19.8-15c1-7.9,2.4-18.6,2.4-39.6v-49.6
		c0-15.8-0.2-20-4.8-25.8c-4.5-5.7-9.8-7.6-20-8.6v-8.1H668l91.4,104.8h0.7v-42c0-21.2-1.2-32.5-1.9-39.4
		c-1.2-10.3-6-14.3-23.6-15.3v-8.1h58.2V167.6z"/>
	<path class="st0" d="M64,247.8c7.6,0,11.9,3.1,15.8,10.3c6.9,12.7,13.4,25.5,19.6,35.3c1.3,1.9,3.7,6,8,11.5h40.6
		c-1.9-2-3.8-4-5.6-6.1c-4.5-5-9.8-12.7-18.1-26c-7.2-11-16-26.7-19.6-33.9c16-6.4,29.8-17.9,29.8-38.9c0-14.8-6.4-25.3-16-31.7
		c-9.8-6.4-21.7-8.8-42.7-8.8H8.6v8.4c17.4,1.7,19.6,4.1,19.6,23.2v91.7c0,19.8-2.6,22-20.5,23.6v8.4h72.1v-8.4
		c-18.1-1.7-20.3-3.8-20.3-23.6v-34.8H64z M59.5,180.2c0-5,0.5-7.4,2.1-8.8c1.4-1.4,4.8-2.4,10.7-2.4c13.4,0,28.2,9.1,28.2,34.6
		c0,12.2-3.3,21.7-11.5,28.4c-5.3,4.5-13.4,6.2-23.4,6.2h-6.2V180.2z"/>
</g>
<g id="Layer_2">
	<path class="st0" d="M858.5,155.6c9.3,17.6,14.3,36.2,14.3,55.4c0,112.7-171.9,204.1-383.9,204.1c-150.2,0-280.2-45.8-343.3-112.6
		h-40.1c60.2,74.4,204.8,126.8,373.6,126.8c222.9,0,403.5-91.4,403.5-204.1C882.6,200.8,874.1,177.3,858.5,155.6z"/>
</g>
<g id="Layer_3" class="st1">
	<ellipse class="st2" cx="998.1" cy="680.1" rx="557.4" ry="296.2"/>
	<ellipse class="st2" cx="983.9" cy="700.8" rx="585.8" ry="296.2"/>
</g>
<g id="Layer_4">
	<path class="st0" d="M479.3,21.1c174.5,0,323.1,56,379.4,134.4C813.3,69.7,665,6.9,489.1,6.9c-120.7,0-228.3,29.6-298.7,75.9
		C263.7,44.7,366.1,21.1,479.3,21.1z"/>
</g>
</svg>
